<?xml version="1.0" encoding="utf-8"?>
<!-- Generator: Adobe Illustrator 24.0.0, SVG Export Plug-In . SVG Version: 6.00 Build 0)  -->
<svg version="1.1" id="Layer_1" xmlns="http://www.w3.org/2000/svg" xmlns:xlink="http://www.w3.org/1999/xlink" x="0px" y="0px"
	 width="1048.7px" height="260px" viewBox="0 0 1048.7 260" style="enable-background:new 0 0 1048.7 260;" xml:space="preserve">
<style type="text/css">
	.st0{fill:#FFD9DA;}
	.st1{fill:#FF0000;}
	.st2{clip-path:url(#SVGID_2_);}
	.st3{fill:#FFFFFF;}
	.st4{clip-path:url(#SVGID_4_);}
	.st5{clip-path:url(#SVGID_6_);}
	.st6{fill:none;stroke:#FFFFFF;stroke-width:1.94;stroke-linecap:round;stroke-linejoin:round;}
	.st7{clip-path:url(#SVGID_8_);}
	.st8{clip-path:url(#SVGID_10_);}
	.st9{clip-path:url(#SVGID_12_);}
	.st10{clip-path:url(#SVGID_14_);}
	.st11{fill:#FFB2B4;}
	.st12{clip-path:url(#SVGID_16_);}
</style>
<g id="Forrester_FC_art" transform="translate(713.7 802.448)">
	<path id="Path_41" class="st0" d="M-62.1-715c-3.7-13.2-1-27.1,4.3-39.2c18-41,62.7-56,103.2-44.5c36.2,10.3,63.3,34.9,101,39
		c26.3,2.9,56.6-8,80.7,7c21.9,13.7,34.9,38,33.2,63.9c-1.3,20.3-11.9,38.8-27.3,51.9c-15.5,13.3-34.1,22.2-49.5,35.8
		c-10.7,9.5-15.8,23.1-24.8,34c-10.6,12.7-26.5,21.3-42.7,23.8c-17.2,2.6-34.8-1.3-49.4-10.7c-12.9-8.3-23.5-21.1-38.9-25
		c-11.1-2.8-22.1,0.2-33,2.8c-7.6,1.8-16.1,0.8-23.5-1.7c-14.7-5.1-27.4-17.1-32.8-31.8c-3.7-9.8-3.4-20.7,0.9-30.2
		c3.2-7.1,7.4-13.9,9.1-21.5c3.2-14.2-0.4-28.7-6-41.7C-59.4-707.6-60.9-710.9-62.1-715z"/>
	<g id="Group_46" transform="translate(126.3 37.552)">
		<path id="Path_42" d="M-113.6-779.4h-8.3c-0.3,0-0.6-0.3-0.6-0.6s0.3-0.6,0.6-0.6l0,0h8.3c0.3,0,0.6,0.3,0.6,0.6
			C-113-779.7-113.3-779.4-113.6-779.4z"/>
		<path id="Path_43" d="M-106.9-795.8h-14.8c-0.3,0-0.6-0.3-0.6-0.6s0.3-0.6,0.6-0.6h14.8c0.3,0,0.6,0.2,0.6,0.4c0,0,0,0.1,0,0.2
			C-106.3-796-106.6-795.8-106.9-795.8L-106.9-795.8z"/>
		<path id="Path_44" d="M-82.7-787.6h-39.1c-0.3,0-0.6-0.3-0.6-0.6s0.3-0.6,0.6-0.6h39.1c0.3,0,0.6,0.2,0.6,0.4c0,0,0,0.1,0,0.2
			C-82.1-787.9-82.4-787.6-82.7-787.6L-82.7-787.6z"/>
		<path id="Path_45" d="M-66.2-787.6h-9.2c-0.3,0-0.6-0.3-0.6-0.6s0.3-0.6,0.6-0.6h9.2c0.3,0,0.6,0.2,0.6,0.4c0,0,0,0.1,0,0.2
			C-65.6-787.9-65.8-787.6-66.2-787.6L-66.2-787.6z"/>
		<path id="Path_46" class="st1" d="M-155.9-795.7v14.9l12.9,7.5l13.1-7.5v-14.9l-13.1-7.5L-155.9-795.7z"/>
		<g id="Group_45">
			<g id="Group_41">
				<g id="Group_40">
					<g>
						<g>
							<defs>
								<polygon id="SVGID_1_" points="-155.9,-795.7 -155.9,-780.7 -143,-773.2 -130,-780.7 -130,-795.7 -143,-803.1 								"/>
							</defs>
							<clipPath id="SVGID_2_">
								<use xlink:href="#SVGID_1_"  style="overflow:visible;"/>
							</clipPath>
							<g id="Group_39" class="st2">
								<path id="Path_47" class="st3" d="M-143-787.6c-0.2,0-0.4-0.1-0.5-0.3c-0.2-0.2-0.1-0.6,0.1-0.7c0,0,0.1,0,0.1-0.1l13.6-7.8
									c0.3-0.2,0.6-0.1,0.8,0.2s0.1,0.6-0.2,0.8l0,0l-13.6,7.8C-142.8-787.6-142.8-787.6-143-787.6z"/>
							</g>
						</g>
					</g>
				</g>
			</g>
			<g id="Group_44">
				<g id="Group_43">
					<g>
						<g>
							<defs>
								<polygon id="SVGID_3_" points="-155.9,-795.7 -155.9,-780.7 -143,-773.2 -130,-780.7 -130,-795.7 -143,-803.1 								"/>
							</defs>
							<clipPath id="SVGID_4_">
								<use xlink:href="#SVGID_3_"  style="overflow:visible;"/>
							</clipPath>
							<g id="Group_42" class="st4">
								<path id="Path_49" class="st3" d="M-143-770.5c-0.3,0-0.6-0.2-0.6-0.4c0,0,0-0.1,0-0.2v-16.6l-13.5-7.8
									c-0.3-0.2-0.4-0.5-0.2-0.8s0.5-0.4,0.8-0.2l13.9,8c0.2,0.1,0.3,0.3,0.3,0.5v17C-142.4-770.7-142.7-770.5-143-770.5z"/>
							</g>
						</g>
					</g>
				</g>
			</g>
		</g>
	</g>
	<g id="Path_51" transform="translate(-8.729 0.51)">
		<path class="st3" d="M309.1-588.1H199.9c-1.6,0-3.3-0.2-4.9-0.6c-2.5-0.7-4.9-1.8-6.9-3.4c-2-1.5-3.7-3.4-4.9-5.6
			c-2.6-4.5-3.4-9.7-2.1-14.8c2.2-8.6,10-14.6,18.8-14.6c1.5,0,3,0.2,4.5,0.5c2.1-4.7,5.4-8.7,9.6-11.6c4.2-2.9,9.2-4.6,14.3-4.8
			c1.7-4.4,4.2-8.4,7.3-11.9c3.2-3.6,6.9-6.6,11.2-8.8c2.9-1.6,6-2.7,9.2-3.5c3.1-0.8,6.3-1.1,9.5-1.1c7.2,0,14.2,1.9,20.4,5.6
			c6.2,3.7,11.4,9,14.9,15.4c3.1-0.8,5.9-1.1,8.5-1.1c16.7,0,30.2,13.5,30.2,30.1c0,4.1-0.8,8-2.4,11.8c-1.5,3.6-3.7,6.8-6.5,9.6
			c-2.8,2.8-6,5-9.6,6.5C317.1-588.8,313.1-588.1,309.1-588.1z"/>
		<path class="st0" d="M265.2-667.7c-6.3,0-12.6,1.5-18.5,4.6c-8.4,4.4-14.9,11.8-18.3,20.7c-10.5,0.4-19.8,6.8-23.9,16.5
			c-1.6-0.4-3.2-0.6-4.8-0.6c-8.5,0-16.2,5.7-18.4,14.2c-2.6,10.2,3.5,20.5,13.6,23.1c1.6,0.4,3.2,0.6,4.8,0.6h109.2
			c16.4,0,29.7-13.3,29.7-29.7c0-16.3-13.3-29.6-29.7-29.6c-3,0-6,0.5-8.8,1.2C293.1-660.1,279.4-667.7,265.2-667.7 M265.2-668.7
			c7.2,0,14.4,1.9,20.6,5.6c6.2,3.7,11.3,8.9,14.9,15.2c3-0.7,5.7-1,8.3-1c16.9,0,30.7,13.7,30.7,30.6c0,4.1-0.8,8.2-2.4,12
			c-1.5,3.7-3.8,6.9-6.6,9.8c-2.8,2.8-6.1,5-9.8,6.6c-3.8,1.6-7.8,2.4-12,2.4H199.7c-1.7,0-3.4-0.2-5-0.6l0,0l0,0
			c-2.6-0.7-5-1.8-7.1-3.4c-2-1.6-3.8-3.5-5.1-5.7c-1.3-2.2-2.2-4.7-2.6-7.2c-0.4-2.6-0.3-5.3,0.4-7.9c2.3-8.8,10.2-15,19.3-15
			c1.4,0,2.8,0.1,4.2,0.4c2.1-4.6,5.4-8.5,9.6-11.4s9.1-4.6,14.2-4.9c1.7-4.3,4.2-8.3,7.2-11.7c3.2-3.7,7-6.6,11.3-8.9
			c3-1.6,6.1-2.8,9.3-3.6C258.8-668.3,262-668.7,265.2-668.7z"/>
	</g>
	<g id="Path_79" transform="translate(120.001 60.191)">
		<path class="st3" d="M-59.1-692.3h-82c-1.4,0-2.5-0.1-3.6-0.4c-1.9-0.5-3.7-1.3-5.3-2.5c-1.5-1.1-2.8-2.6-3.7-4.2
			c-1-1.7-1.6-3.4-1.9-5.3c-0.3-2-0.2-3.9,0.3-5.9c0.4-1.6,1.1-3.1,2-4.5c0.9-1.3,2-2.5,3.3-3.5c2.6-2,5.7-3,8.9-3
			c1.1,0,2.2,0.1,3.3,0.4c1.5-3.5,4-6.5,7.1-8.7c3.2-2.2,6.9-3.4,10.7-3.6c2.7-6.6,7.6-12.1,13.9-15.6c2.2-1.2,4.5-2.1,6.9-2.7
			c2.3-0.6,4.7-0.9,7.2-0.9c5.4,0,10.7,1.4,15.4,4.2s8.5,6.7,11.1,11.5c2-0.6,4.1-0.9,6.4-0.9c12.6,0,22.8,10.2,22.8,22.8
			C-36.3-702.5-46.5-692.3-59.1-692.3z"/>
		<path class="st0" d="M-91.9-752.2c-4.7,0-9.4,1.1-13.9,3.5c-6.3,3.4-11.2,8.9-13.8,15.6c-7.9,0.3-14.9,5.1-17.9,12.4
			c-1.2-0.3-2.4-0.5-3.6-0.5c-6.3,0-12.1,4.3-13.7,10.7c-2,7.6,2.6,15.4,10.2,17.3c1.2,0.3,2.3,0.4,3.5,0.4h82
			c12.3,0,22.3-10,22.3-22.3s-10-22.3-22.3-22.3c-2.2,0-4.4,0.3-6.6,1C-71-746.4-81.3-752.2-91.9-752.2 M-91.9-753.2
			c5.5,0,10.9,1.5,15.6,4.3c4.6,2.7,8.5,6.6,11.1,11.3c2-0.5,4-0.8,6.1-0.8c12.8,0,23.3,10.5,23.3,23.3s-10.5,23.3-23.3,23.3h-82
			c-1.4,0-2.6-0.1-3.7-0.4c-2-0.5-3.8-1.4-5.4-2.6c-1.6-1.2-2.9-2.7-3.9-4.4s-1.7-3.6-2-5.5c-0.3-2-0.2-4.1,0.3-6
			c0.4-1.7,1.1-3.2,2.1-4.7c0.9-1.4,2.1-2.6,3.4-3.6c2.6-2,5.9-3.1,9.2-3.1c1,0,2,0.1,3,0.3c1.6-3.4,4-6.3,7.1-8.5
			c3.2-2.2,6.8-3.5,10.7-3.7c2.7-6.6,7.7-12.1,14-15.5c2.2-1.2,4.6-2.1,7.1-2.7C-96.8-752.9-94.4-753.2-91.9-753.2z"/>
	</g>
	<g id="Group_58" transform="translate(23.901 157.088)">
		<path id="Path_53" class="st1" d="M-52.6-771h-23c-0.3,0-0.6-0.3-0.6-0.6s0.3-0.6,0.6-0.6h23c0.3,0,0.6,0.3,0.6,0.6
			C-52-771.3-52.2-771.1-52.6-771L-52.6-771z"/>
		<path id="Path_54" class="st1" d="M-81-771h-13.2c-0.3,0-0.6-0.3-0.6-0.6s0.3-0.6,0.6-0.6h13.1c0.3,0,0.6,0.3,0.6,0.6
			C-80.5-771.3-80.7-771.1-81-771z"/>
		<path id="Path_55" class="st1" d="M-86.5-778.4h-7.7c-0.3,0-0.6-0.3-0.6-0.6s0.3-0.6,0.6-0.6h7.6c0.3,0,0.6,0.3,0.6,0.6
			C-85.9-778.7-86.1-778.5-86.5-778.4C-86.4-778.4-86.5-778.4-86.5-778.4z"/>
		<path id="Path_56" class="st1" d="M-76.3-763.8h-17.8c-0.3,0-0.6-0.3-0.6-0.6s0.3-0.6,0.6-0.6h17.8c0.3,0,0.6,0.3,0.6,0.6
			S-76-763.8-76.3-763.8L-76.3-763.8z"/>
		<path id="Path_57" class="st1" d="M-103.5-788.5v30l-26,15l-26-15v-30l26-15L-103.5-788.5z"/>
		<g id="Group_52">
			<g id="Group_51">
				<g id="Group_50">
					<g id="Group_49">
						<g>
							<g>
								<defs>
									<polygon id="SVGID_5_" points="-103.5,-788.5 -103.5,-758.5 -129.5,-743.5 -155.5,-758.5 -155.5,-788.5 -129.5,-803.5 
																			"/>
								</defs>
								<clipPath id="SVGID_6_">
									<use xlink:href="#SVGID_5_"  style="overflow:visible;"/>
								</clipPath>
								<g id="Group_48" class="st5">
									<line id="Line_4" class="st6" x1="-155.5" y1="-788.5" x2="-129.5" y2="-773.5"/>
									<line id="Line_5" class="st6" x1="-129.5" y1="-773.5" x2="-129.5" y2="-738.7"/>
									<line id="Line_6" class="st6" x1="-103.5" y1="-788.5" x2="-129.5" y2="-773.5"/>
								</g>
							</g>
						</g>
					</g>
				</g>
			</g>
		</g>
		<g id="Group_57">
			<g id="Group_56">
				<g id="Group_55">
					<g id="Group_54">
						<g>
							<g>
								<defs>
									<polygon id="SVGID_7_" points="-103.5,-788.5 -103.5,-758.5 -129.5,-743.5 -155.5,-758.5 -155.5,-788.5 -129.5,-803.5 
																			"/>
								</defs>
								<clipPath id="SVGID_8_">
									<use xlink:href="#SVGID_7_"  style="overflow:visible;"/>
								</clipPath>
								<g id="Group_53" class="st7">
									<path id="Path_59" d="M-150.5-812c-1.6,1.7-2.2,5-2.9,7.1c-1.5,4.4-2.5,9-2.7,13.7c-0.1,6.4,4.1,12.4,8.1,17.1
										c3.9,4.5,9,7.8,12.6,12.7c0.7,0.9,1.3,1.8,1.8,2.7c3.2,5.8,4,12.5,3.4,19c0,0.3-0.1,2.2-0.6,2.3l-35.2,1.2l-2.7-75.2
										C-168.7-811.3-149.9-812.7-150.5-812z"/>
								</g>
							</g>
						</g>
					</g>
				</g>
			</g>
		</g>
	</g>
	<g id="Path_61" transform="translate(0.001 -9.809)">
		<path class="st3" d="M-50.5-692h-82c-12.6,0-22.8-10.2-22.8-22.8s10.2-22.8,22.8-22.8c2.2,0,4.3,0.3,6.4,0.9
			c2.6-4.8,6.5-8.7,11.1-11.5c4.7-2.7,10-4.2,15.4-4.2c2.4,0,4.8,0.3,7.2,0.9c2.4,0.6,4.7,1.5,6.9,2.7c6.3,3.4,11.3,8.9,13.9,15.6
			c3.9,0.2,7.6,1.5,10.7,3.6c3.1,2.2,5.6,5.2,7.1,8.7c1.1-0.3,2.2-0.4,3.3-0.4c3.2,0,6.4,1.1,8.9,3c1.3,1,2.4,2.2,3.3,3.5
			c0.9,1.4,1.6,2.9,2,4.5c0.5,1.9,0.6,3.9,0.3,5.9c-0.3,1.9-0.9,3.7-1.9,5.3s-2.2,3.1-3.7,4.2c-1.6,1.2-3.3,2-5.3,2.5
			C-48-692.2-49.2-692-50.5-692z"/>
		<path class="st0" d="M-99.7-751.9c-10.6,0-20.9,5.7-26.2,15.8c-2.2-0.7-4.4-1-6.6-1c-12.3,0-22.3,10-22.3,22.3s10,22.3,22.3,22.3
			h82c1.2,0,2.3-0.1,3.5-0.4c7.6-1.9,12.2-9.7,10.2-17.3c-1.6-6.4-7.4-10.7-13.7-10.7c-1.2,0-2.4,0.2-3.6,0.5
			c-3-7.3-10-12.1-17.9-12.4c-2.6-6.7-7.5-12.2-13.8-15.6C-90.2-750.8-95-751.9-99.7-751.9 M-99.7-752.9L-99.7-752.9
			c2.5,0,4.9,0.3,7.3,0.9c2.4,0.6,4.8,1.5,7.1,2.7c6.3,3.4,11.3,8.9,14,15.5c3.8,0.3,7.5,1.5,10.7,3.7c3.1,2.1,5.6,5.1,7.1,8.5
			c1-0.2,2-0.3,3-0.3c3.3,0,6.6,1.1,9.2,3.1c1.3,1,2.5,2.2,3.4,3.6c0.9,1.4,1.6,3,2.1,4.7c0.5,2,0.6,4,0.3,6s-0.9,3.8-2,5.5
			c-1,1.7-2.3,3.2-3.9,4.4c-1.6,1.2-3.4,2.1-5.4,2.6c-1.2,0.3-2.3,0.4-3.7,0.4h-82c-12.8,0-23.3-10.5-23.3-23.3s10.5-23.3,23.3-23.3
			c2.1,0,4.2,0.3,6.1,0.8c2.7-4.7,6.5-8.6,11.1-11.3C-110.6-751.4-105.2-752.9-99.7-752.9z"/>
	</g>
	<g id="Group_67" transform="translate(330.641 42.658)">
		<path id="Path_63" d="M-123.1-784.8h-18c-0.6,0-1-0.4-1-1s0.4-1,1-1h18c0.6,0,1,0.4,1,1C-122.1-785.3-122.5-784.8-123.1-784.8
			L-123.1-784.8z"/>
		<path id="Path_64" d="M-123.1-757.8h-32.5c-0.6,0-1-0.4-1-1s0.4-1,1-1h32.5c0.6,0,1,0.4,1,1S-122.5-757.8-123.1-757.8
			L-123.1-757.8z"/>
		<path id="Path_65" d="M-126-771.4h-23.6c-0.6,0-1-0.4-1-1s0.4-1,1-1h23.6c0.5,0,1,0.5,1,1S-125.4-771.4-126-771.4z"/>
		<path id="Path_66" class="st1" d="M-112.3-788.1v30l25.9,15l26-15v-30l-26-15L-112.3-788.1z"/>
		<g id="Group_66" transform="translate(44.467)">
			<g id="Group_62">
				<g id="Group_61">
					<g>
						<g>
							<defs>
								<polygon id="SVGID_9_" points="-156.7,-788.1 -156.7,-758.1 -130.8,-743.1 -104.8,-758.1 -104.8,-788.1 -130.8,-803.1 
																	"/>
							</defs>
							<clipPath id="SVGID_10_">
								<use xlink:href="#SVGID_9_"  style="overflow:visible;"/>
							</clipPath>
							<g id="Group_60" class="st8">
								<path id="Path_67" class="st3" d="M-130.8-772.6c-0.2,0-0.4-0.1-0.5-0.2c-0.1-0.3,0-0.5,0.2-0.7l28.5-16.5
									c0.2-0.2,0.6-0.1,0.7,0.1c0.2,0.2,0.1,0.6-0.1,0.7h-0.1l-28.4,16.5h-0.3V-772.6z"/>
							</g>
						</g>
					</g>
				</g>
			</g>
			<g id="Group_65">
				<g id="Group_64">
					<g>
						<g>
							<defs>
								<polygon id="SVGID_11_" points="-156.7,-788.1 -156.7,-758.1 -130.8,-743.1 -104.8,-758.1 -104.8,-788.1 -130.8,-803.1 
																	"/>
							</defs>
							<clipPath id="SVGID_12_">
								<use xlink:href="#SVGID_11_"  style="overflow:visible;"/>
							</clipPath>
							<g id="Group_63" class="st9">
								<path id="Path_69" class="st3" d="M-130.8-741.1L-130.8-741.1c-0.3,0-0.5-0.2-0.5-0.4c0,0,0,0,0-0.1v-31.2l-26.7-15.3
									c-0.3-0.1-0.4-0.4-0.3-0.7s0.4-0.4,0.7-0.3h0.1l27,15.5c0.1,0.1,0.2,0.3,0.2,0.5v31.5C-130.4-741.3-130.6-741.1-130.8-741.1
									z"/>
							</g>
						</g>
					</g>
				</g>
			</g>
		</g>
	</g>
	<g id="Group_75" transform="translate(316.3 137.552)">
		<path id="Path_71" d="M-151.9-759.4c-0.3,0-0.6-0.2-0.6-0.5l0,0v-7.9c0-0.3,0.2-0.6,0.5-0.6l0,0c0.3,0,0.5,0.2,0.6,0.4v0.1v7.9
			C-151.4-759.7-151.6-759.5-151.9-759.4C-151.8-759.4-151.9-759.4-151.9-759.4z"/>
		<path id="Path_72" d="M-136.2-739c-0.3,0-0.6-0.4-0.6-1.1v-27.3c0-0.6,0.2-1.1,0.6-1.1c0.4,0,0.6,0.4,0.6,1.1v27.3
			C-135.7-739.5-135.9-739-136.2-739z"/>
		<path id="Path_73" d="M-144.1-735.1c-0.3,0-0.6-0.2-0.6-0.5l0,0v-32.3c0-0.3,0.3-0.6,0.6-0.6s0.6,0.3,0.6,0.6l0,0v32.2
			c0,0.3-0.2,0.5-0.4,0.6C-144-735.1-144-735.1-144.1-735.1z"/>
		<path id="Path_74" d="M-144.1-713.8c-0.3,0-0.6-0.2-0.6-0.5l0,0v-14.2c0-0.3,0.3-0.6,0.6-0.6s0.6,0.3,0.6,0.6v14.2
			c0,0.3-0.2,0.5-0.4,0.6C-144-713.8-144-713.8-144.1-713.8z"/>
		<path id="Path_75" class="st1" d="M-156.5-794.9v14.4l12.4,7.2l12.4-7.2v-14.4l-12.4-7.2L-156.5-794.9z"/>
		<g id="Group_74" transform="translate(0 0)">
			<g id="Group_73" transform="translate(0 1.471)">
				<g id="Group_72">
					<g>
						<g>
							<defs>
								<polygon id="SVGID_13_" points="-156.5,-796.3 -156.5,-781.9 -144.1,-774.8 -131.6,-781.9 -131.6,-796.3 -144.1,-803.5 
																	"/>
							</defs>
							<clipPath id="SVGID_14_">
								<use xlink:href="#SVGID_13_"  style="overflow:visible;"/>
							</clipPath>
							<g id="Group_71" class="st10">
								<path id="Path_77" class="st3" d="M-143.5-772.7h-1.1v-16.1l-13-7.4l0.5-1l13.6,7.7V-772.7z"/>
							</g>
						</g>
					</g>
				</g>
			</g>
		</g>
	</g>
</g>
<rect id="Rectangle_5" x="710.9" y="79.7" class="st11" width="103.6" height="104.6"/>
<path id="Path_80" class="st3" d="M739.6,125.3c-2.2,0-4.5,0.3-6.6,1c-7.7-14.5-25.6-20-40.1-12.3l0,0c-6.3,3.4-11.2,8.9-13.8,15.6
	c-7.9,0.3-14.9,5.1-17.9,12.4c-7.6-2.1-15.4,2.4-17.4,10c-2.1,7.6,2.4,15.4,10,17.4c0.1,0,0.3,0.1,0.4,0.1c1.1,0.3,2.3,0.4,3.5,0.4
	h82c12.3,0,22.3-10,22.3-22.3S752,125.3,739.6,125.3L739.6,125.3z"/>
<g>
	<rect x="711.2" y="81.4" class="st11" width="102.3" height="103.7"/>
	<g id="Layer_2_1_">
		<rect x="716.5" y="76.1" class="st3" width="102.3" height="103.7"/>
		<path class="st1" d="M819.4,180.4H715.9V75.5h103.5V180.4z M717,179.2h101.2V76.7H717V179.2z"/>
		<path class="st1" d="M741.1,119.7c-0.2,0-0.3-0.1-0.4-0.2c-0.1-0.1-0.2-0.3-0.2-0.4V119v-0.1c0,0,0-0.1,0.1-0.1c0,0,0-0.1,0.1-0.1
			c0.2-0.2,0.6-0.2,0.8,0c0,0,0,0.1,0.1,0.1v0.1v0.1v0.1c0,0.2-0.1,0.3-0.2,0.4C741.4,119.7,741.2,119.7,741.1,119.7z"/>
		<path class="st1" d="M740.5,146.8c0-0.3,0.3-0.6,0.6-0.6l0,0c0.3,0,0.6,0.3,0.6,0.6l0,0c0,0.3-0.3,0.6-0.6,0.6l0,0
			C740.8,147.3,740.5,147.1,740.5,146.8z"/>
		<path class="st1" d="M740.5,143.7c0-0.3,0.3-0.6,0.6-0.6l0,0c0.3,0,0.6,0.3,0.6,0.6l0,0c0,0.3-0.3,0.6-0.6,0.6l0,0
			C740.8,144.3,740.5,144,740.5,143.7z"/>
		<path class="st1" d="M740.5,140.6c0-0.3,0.3-0.6,0.6-0.6l0,0c0.3,0,0.6,0.3,0.6,0.6l0,0c0,0.3-0.3,0.6-0.6,0.6l0,0
			C740.8,141.2,740.5,140.9,740.5,140.6z"/>
		<path class="st1" d="M740.5,137.6c0-0.3,0.3-0.6,0.6-0.6l0,0c0.3,0,0.6,0.3,0.6,0.6l0,0c0,0.3-0.3,0.6-0.6,0.6l0,0
			C740.8,138.1,740.5,137.9,740.5,137.6z"/>
		<path class="st1" d="M740.5,134.5c0-0.3,0.3-0.6,0.6-0.6l0,0c0.3,0,0.6,0.3,0.6,0.6l0,0c0,0.3-0.3,0.6-0.6,0.6l0,0
			C740.8,135.1,740.5,134.8,740.5,134.5z"/>
		<path class="st1" d="M740.5,131.4c0-0.3,0.3-0.6,0.6-0.6l0,0c0.3,0,0.6,0.3,0.6,0.6l0,0c0,0.3-0.3,0.6-0.6,0.6l0,0
			C740.8,132,740.5,131.7,740.5,131.4z"/>
		<path class="st1" d="M740.5,128.4c0-0.3,0.3-0.6,0.6-0.6l0,0c0.3,0,0.6,0.3,0.6,0.6l0,0c0,0.3-0.3,0.6-0.6,0.6l0,0
			C740.8,128.9,740.5,128.7,740.5,128.4z"/>
		<path class="st1" d="M740.5,125.3c0-0.3,0.3-0.6,0.6-0.6l0,0c0.3,0,0.6,0.3,0.6,0.6l0,0c0,0.3-0.3,0.6-0.6,0.6l0,0
			C740.8,125.9,740.5,125.6,740.5,125.3z"/>
		<path class="st1" d="M740.5,122.2c0-0.3,0.3-0.6,0.6-0.6l0,0c0.3,0,0.6,0.3,0.6,0.6l0,0c0,0.3-0.3,0.6-0.6,0.6l0,0
			C740.8,122.8,740.5,122.5,740.5,122.2z"/>
		<path class="st1" d="M741.1,150.4c-0.2,0-0.3-0.1-0.4-0.2c-0.1-0.1-0.1-0.1-0.1-0.2c0-0.1,0-0.1,0-0.2v-0.1v-0.1
			c0,0,0-0.1,0.1-0.1c0,0,0-0.1,0.1-0.1c0,0,0.1,0,0.1-0.1c0,0,0.1,0,0.1-0.1h0.1c0.2,0,0.4,0,0.5,0.2c0,0,0,0.1,0.1,0.1v0.1v0.1
			v0.1c0,0.1,0,0.2,0,0.2c0,0.1-0.1,0.1-0.1,0.2c-0.1,0.1-0.1,0.1-0.2,0.1C741.2,150.4,741.1,150.4,741.1,150.4z"/>
		<path class="st1" d="M764.7,164.1c-0.3-0.2-0.4-0.5-0.2-0.8l0,0c0.2-0.3,0.5-0.4,0.8-0.2l0,0c0.3,0.2,0.4,0.5,0.2,0.8l0,0
			c-0.1,0.2-0.3,0.3-0.5,0.3l0,0C764.9,164.2,764.8,164.2,764.7,164.1z"/>
		<path class="st1" d="M762,162.6c-0.3-0.2-0.4-0.5-0.2-0.8l0,0c0.2-0.3,0.5-0.4,0.8-0.2l0,0c0.3,0.2,0.4,0.5,0.2,0.8l0,0
			c-0.1,0.2-0.3,0.3-0.5,0.3l0,0C762.2,162.6,762.1,162.6,762,162.6z"/>
		<path class="st1" d="M759.4,161c-0.3-0.2-0.4-0.5-0.2-0.8l0,0c0.2-0.3,0.5-0.4,0.8-0.2l0,0c0.3,0.2,0.4,0.5,0.2,0.8l0,0
			c-0.1,0.2-0.3,0.3-0.5,0.3l0,0C759.6,161.1,759.5,161.1,759.4,161z"/>
		<path class="st1" d="M756.7,159.5c-0.3-0.2-0.4-0.5-0.2-0.8l0,0c0.2-0.3,0.5-0.4,0.8-0.2l0,0c0.3,0.2,0.4,0.5,0.2,0.8l0,0
			c-0.1,0.2-0.3,0.3-0.5,0.3l0,0C756.9,159.6,756.8,159.6,756.7,159.5z"/>
		<path class="st1" d="M754.1,158c-0.3-0.2-0.4-0.5-0.2-0.8l0,0c0.2-0.3,0.5-0.4,0.8-0.2l0,0c0.3,0.2,0.4,0.5,0.2,0.8l0,0
			c-0.1,0.2-0.3,0.3-0.5,0.3l0,0C754.3,158,754.2,158,754.1,158z"/>
		<path class="st1" d="M751.4,156.4c-0.3-0.2-0.4-0.5-0.2-0.8l0,0c0.2-0.3,0.5-0.4,0.8-0.2l0,0c0.3,0.2,0.4,0.5,0.2,0.8l0,0
			c-0.1,0.2-0.3,0.3-0.5,0.3l0,0C751.6,156.5,751.5,156.5,751.4,156.4z"/>
		<path class="st1" d="M748.8,154.9c-0.3-0.2-0.4-0.5-0.2-0.8l0,0c0.2-0.3,0.5-0.4,0.8-0.2l0,0c0.3,0.2,0.4,0.5,0.2,0.8l0,0
			c-0.1,0.2-0.3,0.3-0.5,0.3l0,0C748.9,155,748.8,155,748.8,154.9z"/>
		<path class="st1" d="M746.1,153.4c-0.3-0.2-0.4-0.5-0.2-0.8l0,0c0.2-0.3,0.5-0.4,0.8-0.2l0,0c0.3,0.2,0.4,0.5,0.2,0.8l0,0
			c-0.1,0.2-0.3,0.3-0.5,0.3l0,0C746.3,153.4,746.2,153.4,746.1,153.4z"/>
		<path class="st1" d="M743.4,151.8c-0.3-0.2-0.4-0.5-0.2-0.8l0,0c0.2-0.3,0.5-0.4,0.8-0.2l0,0c0.3,0.2,0.4,0.5,0.2,0.8l0,0
			c-0.1,0.2-0.3,0.3-0.5,0.3l0,0C743.6,151.9,743.5,151.9,743.4,151.8z"/>
		<path class="st1" d="M767.6,165.7c-0.1,0-0.1,0-0.2,0s-0.1-0.1-0.2-0.1c-0.1-0.1-0.2-0.3-0.2-0.4v-0.1V165c0,0,0-0.1,0.1-0.1
			c0,0,0-0.1,0.1-0.1c0,0,0.1,0,0.1-0.1c0,0,0.1,0,0.1-0.1h0.1c0.1,0,0.1,0,0.2,0h0.1c0,0,0.1,0,0.1,0.1c0,0,0.1,0,0.1,0.1
			c0.1,0.1,0.2,0.3,0.2,0.4c0,0.2-0.1,0.3-0.2,0.4c-0.1,0.1-0.1,0.1-0.2,0.1C767.8,165.7,767.7,165.7,767.6,165.7z"/>
		<path class="st1" d="M769.8,163.9c-0.2-0.3-0.1-0.6,0.2-0.8l0,0c0.3-0.2,0.6-0.1,0.8,0.2l0,0c0.2,0.3,0.1,0.6-0.2,0.8l0,0
			c-0.1,0.1-0.2,0.1-0.3,0.1l0,0C770.1,164.2,769.9,164.1,769.8,163.9z"/>
		<path class="st1" d="M772.5,162.4c-0.2-0.3-0.1-0.6,0.2-0.8l0,0c0.3-0.2,0.6-0.1,0.8,0.2l0,0c0.2,0.3,0.1,0.6-0.2,0.8l0,0
			c-0.1,0.1-0.2,0.1-0.3,0.1l0,0C772.8,162.6,772.6,162.5,772.5,162.4z"/>
		<path class="st1" d="M775.1,160.8c-0.2-0.3-0.1-0.6,0.2-0.8l0,0c0.3-0.2,0.6-0.1,0.8,0.2l0,0c0.2,0.3,0.1,0.6-0.2,0.8l0,0
			c-0.1,0.1-0.2,0.1-0.3,0.1l0,0C775.4,161.1,775.2,161,775.1,160.8z"/>
		<path class="st1" d="M777.8,159.3c-0.2-0.3-0.1-0.6,0.2-0.8l0,0c0.3-0.2,0.6-0.1,0.8,0.2l0,0c0.2,0.3,0.1,0.6-0.2,0.8l0,0
			c-0.1,0.1-0.2,0.1-0.3,0.1l0,0C778.1,159.6,777.9,159.5,777.8,159.3z"/>
		<path class="st1" d="M780.4,157.8c-0.2-0.3-0.1-0.6,0.2-0.8l0,0c0.3-0.2,0.6-0.1,0.8,0.2l0,0c0.2,0.3,0.1,0.6-0.2,0.8l0,0
			c-0.1,0.1-0.2,0.1-0.3,0.1l0,0C780.7,158,780.5,157.9,780.4,157.8z"/>
		<path class="st1" d="M783.1,156.2c-0.2-0.3-0.1-0.6,0.2-0.8l0,0c0.3-0.2,0.6-0.1,0.8,0.2l0,0c0.2,0.3,0.1,0.6-0.2,0.8l0,0
			c-0.1,0-0.2,0.1-0.3,0.1l0,0C783.4,156.5,783.2,156.4,783.1,156.2z"/>
		<path class="st1" d="M785.7,154.7c-0.2-0.3-0.1-0.6,0.2-0.8l0,0c0.3-0.2,0.6-0.1,0.8,0.2l0,0c0.2,0.3,0.1,0.6-0.2,0.8l0,0
			c-0.1,0-0.2,0.1-0.3,0.1l0,0C786,155,785.8,154.9,785.7,154.7z"/>
		<path class="st1" d="M788.4,153.2c-0.2-0.3-0.1-0.6,0.2-0.8l0,0c0.3-0.2,0.6-0.1,0.8,0.2l0,0c0.2,0.3,0.1,0.6-0.2,0.8l0,0
			c-0.1,0-0.2,0.1-0.3,0.1l0,0C788.7,153.4,788.5,153.3,788.4,153.2z"/>
		<path class="st1" d="M791,151.6c-0.2-0.3-0.1-0.6,0.2-0.8l0,0c0.3-0.2,0.6-0.1,0.8,0.2l0,0c0.2,0.3,0.1,0.6-0.2,0.8l0,0
			c-0.1,0-0.2,0.1-0.3,0.1l0,0C791.3,151.9,791.1,151.8,791,151.6z"/>
		<path class="st1" d="M794.2,150.4c-0.1,0-0.1,0-0.2,0c-0.1,0-0.1-0.1-0.2-0.1c-0.1-0.1-0.1-0.1-0.1-0.2c0-0.1,0-0.1,0-0.2v-0.1
			v-0.1c0,0,0-0.1,0.1-0.1c0,0,0-0.1,0.1-0.1c0.1-0.1,0.3-0.2,0.5-0.2h0.1c0,0,0.1,0,0.1,0.1c0,0,0.1,0,0.1,0.1c0,0,0,0.1,0.1,0.1
			v0.1v0.1v0.1c0,0.1,0,0.2,0,0.2c0,0.1-0.1,0.1-0.1,0.2c-0.1,0.1-0.1,0.1-0.2,0.1C794.3,150.4,794.2,150.4,794.2,150.4z"/>
		<path class="st1" d="M793.6,146.7c0-0.3,0.3-0.6,0.6-0.6l0,0c0.3,0,0.6,0.3,0.6,0.6l0,0c0,0.3-0.3,0.6-0.6,0.6l0,0
			C793.9,147.3,793.6,147.1,793.6,146.7z"/>
		<path class="st1" d="M793.6,143.7c0-0.3,0.3-0.6,0.6-0.6l0,0c0.3,0,0.6,0.3,0.6,0.6l0,0c0,0.3-0.3,0.6-0.6,0.6l0,0
			C793.9,144.2,793.6,144,793.6,143.7z"/>
		<path class="st1" d="M793.6,140.6c0-0.3,0.3-0.6,0.6-0.6l0,0c0.3,0,0.6,0.3,0.6,0.6l0,0c0,0.3-0.3,0.6-0.6,0.6l0,0
			C793.9,141.2,793.6,140.9,793.6,140.6z"/>
		<path class="st1" d="M793.6,137.5c0-0.3,0.3-0.6,0.6-0.6l0,0c0.3,0,0.6,0.3,0.6,0.6l0,0c0,0.3-0.3,0.6-0.6,0.6l0,0
			C793.9,138.1,793.6,137.9,793.6,137.5z"/>
		<path class="st1" d="M793.6,134.5c0-0.3,0.3-0.6,0.6-0.6l0,0c0.3,0,0.6,0.3,0.6,0.6l0,0c0,0.3-0.3,0.6-0.6,0.6l0,0
			C793.9,135,793.6,134.8,793.6,134.5z"/>
		<path class="st1" d="M793.6,131.4c0-0.3,0.3-0.6,0.6-0.6l0,0c0.3,0,0.6,0.3,0.6,0.6l0,0c0,0.3-0.3,0.6-0.6,0.6l0,0
			C793.9,132,793.6,131.7,793.6,131.4z"/>
		<path class="st1" d="M793.6,128.3c0-0.3,0.3-0.6,0.6-0.6l0,0c0.3,0,0.6,0.3,0.6,0.6l0,0c0,0.3-0.3,0.6-0.6,0.6l0,0
			C793.9,128.9,793.6,128.6,793.6,128.3z"/>
		<path class="st1" d="M793.6,125.3c0-0.3,0.3-0.6,0.6-0.6l0,0c0.3,0,0.6,0.3,0.6,0.6l0,0c0,0.3-0.3,0.6-0.6,0.6l0,0
			C793.9,125.8,793.6,125.6,793.6,125.3z"/>
		<path class="st1" d="M793.6,122.2c0-0.3,0.3-0.6,0.6-0.6l0,0c0.3,0,0.6,0.3,0.6,0.6l0,0c0,0.3-0.3,0.6-0.6,0.6l0,0
			C793.9,122.8,793.6,122.5,793.6,122.2z"/>
		<path class="st1" d="M794.2,119.7c-0.2,0-0.3-0.1-0.4-0.2c-0.1-0.1-0.2-0.3-0.2-0.4V119v-0.1c0,0,0-0.1,0.1-0.1c0,0,0-0.1,0.1-0.1
			c0.2-0.2,0.6-0.2,0.8,0c0,0,0,0.1,0.1,0.1v0.1v0.1v0.1c0,0.2-0.1,0.3-0.2,0.4C794.5,119.7,794.3,119.7,794.2,119.7z"/>
		<path class="st1" d="M791.2,118.1c-0.3-0.2-0.4-0.5-0.2-0.8l0,0c0.2-0.3,0.5-0.4,0.8-0.2l0,0c0.3,0.2,0.4,0.5,0.2,0.8l0,0
			c-0.1,0.2-0.3,0.3-0.5,0.3l0,0C791.4,118.2,791.3,118.2,791.2,118.1z"/>
		<path class="st1" d="M788.6,116.6c-0.3-0.2-0.4-0.5-0.2-0.8l0,0c0.2-0.3,0.5-0.4,0.8-0.2l0,0c0.3,0.2,0.4,0.5,0.2,0.8l0,0
			c-0.1,0.2-0.3,0.3-0.5,0.3l0,0C788.8,116.7,788.7,116.6,788.6,116.6z"/>
		<path class="st1" d="M785.9,115c-0.3-0.2-0.4-0.5-0.2-0.8l0,0c0.2-0.3,0.5-0.4,0.8-0.2l0,0c0.3,0.2,0.4,0.5,0.2,0.8l0,0
			c-0.1,0.2-0.3,0.3-0.5,0.3l0,0C786.1,115.1,786,115.1,785.9,115z"/>
		<path class="st1" d="M783.3,113.5c-0.3-0.2-0.4-0.5-0.2-0.8l0,0c0.2-0.3,0.5-0.4,0.8-0.2l0,0c0.3,0.2,0.4,0.5,0.2,0.8l0,0
			c-0.1,0.2-0.3,0.3-0.5,0.3l0,0C783.4,113.6,783.3,113.6,783.3,113.5z"/>
		<path class="st1" d="M780.6,112c-0.3-0.2-0.4-0.5-0.2-0.8l0,0c0.2-0.3,0.5-0.4,0.8-0.2l0,0c0.3,0.2,0.4,0.5,0.2,0.8l0,0
			c-0.1,0.2-0.3,0.3-0.5,0.3l0,0C780.8,112.1,780.7,112,780.6,112z"/>
		<path class="st1" d="M777.9,110.4c-0.3-0.2-0.4-0.5-0.2-0.8l0,0c0.2-0.3,0.5-0.4,0.8-0.2l0,0c0.3,0.2,0.4,0.5,0.2,0.8l0,0
			c-0.1,0.2-0.3,0.3-0.5,0.3l0,0C778.1,110.5,778,110.5,777.9,110.4z"/>
		<path class="st1" d="M775.3,108.9c-0.3-0.2-0.4-0.5-0.2-0.8l0,0c0.2-0.3,0.5-0.4,0.8-0.2l0,0c0.3,0.2,0.4,0.5,0.2,0.8l0,0
			c-0.1,0.2-0.3,0.3-0.5,0.3l0,0C775.5,109,775.4,109,775.3,108.9z"/>
		<path class="st1" d="M772.6,107.4c-0.3-0.2-0.4-0.5-0.2-0.8l0,0c0.2-0.3,0.5-0.4,0.8-0.2l0,0c0.3,0.2,0.4,0.5,0.2,0.8l0,0
			c-0.1,0.2-0.3,0.3-0.5,0.3l0,0C772.8,107.4,772.7,107.4,772.6,107.4z"/>
		<path class="st1" d="M770,105.8c-0.3-0.2-0.4-0.5-0.2-0.8l0,0c0.2-0.3,0.5-0.4,0.8-0.2l0,0c0.3,0.2,0.4,0.5,0.2,0.8l0,0
			c-0.1,0.2-0.3,0.3-0.5,0.3l0,0C770.2,105.9,770.1,105.9,770,105.8z"/>
		<path class="st1" d="M767.6,104.4c-0.2,0-0.3-0.1-0.4-0.2c-0.1-0.1-0.2-0.3-0.2-0.4v-0.1v-0.1c0,0,0-0.1,0.1-0.1
			c0,0,0-0.1,0.1-0.1c0,0,0.1,0,0.1-0.1c0,0,0.1,0,0.1-0.1h0.1c0.1,0,0.1,0,0.2,0h0.1c0,0,0.1,0,0.1,0.1c0,0,0.1,0,0.1,0.1
			s0,0.1,0.1,0.1v0.1v0.1v0.1c0,0.2-0.1,0.3-0.2,0.4C767.9,104.3,767.8,104.4,767.6,104.4z"/>
		<path class="st1" d="M743.2,117.9c-0.2-0.3-0.1-0.6,0.2-0.8l0,0c0.3-0.2,0.6-0.1,0.8,0.2l0,0c0.2,0.3,0.1,0.6-0.2,0.8l0,0
			c-0.1,0-0.2,0.1-0.3,0.1l0,0C743.5,118.2,743.3,118.1,743.2,117.9z"/>
		<path class="st1" d="M745.9,116.4c-0.2-0.3-0.1-0.6,0.2-0.8l0,0c0.3-0.2,0.6-0.1,0.8,0.2l0,0c0.2,0.3,0.1,0.6-0.2,0.8l0,0
			c-0.1,0.1-0.2,0.1-0.3,0.1l0,0C746.2,116.7,746,116.6,745.9,116.4z"/>
		<path class="st1" d="M748.5,114.8c-0.2-0.3-0.1-0.6,0.2-0.8l0,0c0.3-0.2,0.6-0.1,0.8,0.2l0,0c0.2,0.3,0.1,0.6-0.2,0.8l0,0
			c-0.1,0-0.2,0.1-0.3,0.1l0,0C748.8,115.1,748.7,115,748.5,114.8z"/>
		<path class="st1" d="M751.2,113.3c-0.2-0.3-0.1-0.6,0.2-0.8l0,0c0.3-0.2,0.6-0.1,0.8,0.2l0,0c0.2,0.3,0.1,0.6-0.2,0.8l0,0
			c-0.1,0.1-0.2,0.1-0.3,0.1l0,0C751.5,113.6,751.3,113.5,751.2,113.3z"/>
		<path class="st1" d="M753.9,111.8c-0.2-0.3-0.1-0.6,0.2-0.8l0,0c0.3-0.2,0.6-0.1,0.8,0.2l0,0c0.2,0.3,0.1,0.6-0.2,0.8l0,0
			c-0.1,0-0.2,0.1-0.3,0.1l0,0C754.2,112.1,754,112,753.9,111.8z"/>
		<path class="st1" d="M756.5,110.2c-0.2-0.3-0.1-0.6,0.2-0.8l0,0c0.3-0.2,0.6-0.1,0.8,0.2l0,0c0.2,0.3,0.1,0.6-0.2,0.8l0,0
			c-0.1,0-0.2,0.1-0.3,0.1l0,0C756.8,110.5,756.6,110.4,756.5,110.2z"/>
		<path class="st1" d="M759.2,108.7c-0.2-0.3-0.1-0.6,0.2-0.8l0,0c0.3-0.2,0.6-0.1,0.8,0.2l0,0c0.2,0.3,0.1,0.6-0.2,0.8l0,0
			c-0.1,0.1-0.2,0.1-0.3,0.1l0,0C759.5,109,759.3,108.9,759.2,108.7z"/>
		<path class="st1" d="M761.8,107.2c-0.2-0.3-0.1-0.6,0.2-0.8l0,0c0.3-0.2,0.6-0.1,0.8,0.2l0,0c0.2,0.3,0.1,0.6-0.2,0.8l0,0
			c-0.1,0-0.2,0.1-0.3,0.1l0,0C762.1,107.5,761.9,107.3,761.8,107.2z"/>
		<path class="st1" d="M764.5,105.6c-0.2-0.3-0.1-0.6,0.2-0.8l0,0c0.3-0.2,0.6-0.1,0.8,0.2l0,0c0.2,0.3,0.1,0.6-0.2,0.8l0,0
			c-0.1,0.1-0.2,0.1-0.3,0.1l0,0C764.8,105.9,764.6,105.8,764.5,105.6z"/>
		<path class="st1" d="M818.8,93.9H716.5c-0.3,0-0.6-0.3-0.6-0.6V76.1c0-0.3,0.3-0.6,0.6-0.6h102.3c0.3,0,0.6,0.3,0.6,0.6v17.3
			C819.4,93.7,819.1,93.9,818.8,93.9z"/>
		<path class="st3" d="M782.5,85.1h-57c-0.2,0-0.4-0.2-0.4-0.4c0-0.2,0.2-0.4,0.4-0.4h57c0.2,0,0.4,0.2,0.4,0.4
			S782.7,85.1,782.5,85.1z"/>
		<circle class="st3" cx="802.3" cy="84.7" r="2.1"/>
		<circle class="st3" cx="808.7" cy="84.7" r="2.1"/>
	</g>
</g>
<g>
	<g>
		<defs>
			<path id="SVGID_15_" d="M716.5,112.1c-7.5-2.6-16-2.2-23.5,1.8l0,0c-6.3,3.4-11.2,8.9-13.8,15.6c-7.9,0.3-14.9,5.1-17.9,12.4
				c-7.6-2.1-15.4,2.4-17.4,10c-2.1,7.6,2.4,15.4,10,17.4c0.1,0,0.3,0.1,0.4,0.1c1.1,0.3,2.3,0.4,3.5,0.4h58.9v-57.7H716.5z"/>
		</defs>
		<clipPath id="SVGID_16_">
			<use xlink:href="#SVGID_15_"  style="overflow:visible;"/>
		</clipPath>
		<rect id="Rectangle_6" x="710.9" y="79.7" class="st12" width="103.6" height="104.6"/>
	</g>
</g>
</svg>
