<svg id="e9c45162-a90d-416c-81b4-37390c988cd7" data-name="Layer 1" xmlns="http://www.w3.org/2000/svg" width="297.82" height="71.91" viewBox="0 0 297.82 71.91">
  <defs>
    <style>
      .b0901e33-de66-4e3e-abeb-2f93c7f9f331 {
        fill: #5bbec0;
      }

      .aefe8736-e3d5-4288-9ee6-807541c08271 {
        fill: #fff;
      }
    </style>
  </defs>
  <title>logo_ansiblefest</title>
  <g id="a32f9724-c1cf-49cc-bfe4-0e64c7ced3c9" data-name="ansible-fest-logo-pool-rgb">
    <path id="f38ddecf-4430-4e75-8f60-17c1e595a853" data-name="Path 114" d="M94.86,21.28h6.7l11.3,27.92h-6.24l-2.85-7.36H92.26L89.41,49.2h-6Zm7.15,16-4-10.31-4,10.31Z" transform="translate(-1.09 -0.26)"/>
    <path id="a17f3790-17be-43d5-957a-400fe90ba36f" data-name="Path 115" d="M114.87,28.43h5.45v1.65a9.16,9.16,0,0,1,5.8-2.06,7.91,7.91,0,0,1,8.21,7.57q0,.34,0,.69V49.2h-5.41V37.09a4.05,4.05,0,0,0-3.74-4.35,5.23,5.23,0,0,0-.56,0,4.86,4.86,0,0,0-4.25,2V49.2h-5.5Z" transform="translate(-1.09 -0.26)"/>
    <path id="bfb7cb54-2f4e-419a-985e-629d409a3693" data-name="Path 116" d="M139.48,43.09a12,12,0,0,0,6.75,2.35c2.46,0,4-.9,4-2.2,0-1.05-.81-1.7-2.6-2l-4-.6c-4.11-.65-6.3-2.65-6.3-6,0-4,3.35-6.56,8.65-6.56a15.42,15.42,0,0,1,8.56,2.6l-2.65,3.5a12.3,12.3,0,0,0-6.41-2c-2,0-3.25.81-3.25,2.06s.8,1.7,2.85,1.95l4,.6c4,.6,6.35,2.7,6.35,6,0,3.9-3.85,6.85-9.11,6.85a15.45,15.45,0,0,1-9.55-2.85Z" transform="translate(-1.09 -0.26)"/>
    <path id="e12286dd-e175-48a3-8be1-b91b46968fe5" data-name="Path 117" d="M157.69,22.83a3.1,3.1,0,1,1,3.1,3.1A3.15,3.15,0,0,1,157.69,22.83Zm5.9,26.37h-5.45V28.38h5.45Z" transform="translate(-1.09 -0.26)"/>
    <path id="e132849a-d4e6-4961-8835-27890a588c48" data-name="Path 118" d="M179,49.5a10.66,10.66,0,0,1-5.75-1.71V49.2h-5.41V21.28l5.46-1.2V30a9.75,9.75,0,0,1,5.8-1.9A10.69,10.69,0,0,1,179,49.5ZM173.3,34.74v8.2a7,7,0,0,0,4.95,1.9,6,6,0,1,0,0-12,6.48,6.48,0,0,0-4.95,1.9Z" transform="translate(-1.09 -0.26)"/>
    <path id="ba503695-6698-4824-8bcf-bea034497123" data-name="Path 119" d="M198.51,49.2h-5.45V21.28l5.45-1.2Z" transform="translate(-1.09 -0.26)"/>
    <path id="f579a2f2-e8b5-4937-a25a-c35aff160cba" data-name="Path 120" d="M213,49.6a10.8,10.8,0,0,1-11.15-10.44c0-.11,0-.21,0-.32a10.57,10.57,0,0,1,10.4-10.75h.31a10.5,10.5,0,0,1,10.32,10.68c0,.16,0,.31,0,.47v1.45H207.41A6,6,0,0,0,213.32,45a6.48,6.48,0,0,0,4.6-1.7l3.6,3.25A12.83,12.83,0,0,1,213,49.6Zm-5.71-12.86h10.16a5.36,5.36,0,0,0-5.05-4.2,5.22,5.22,0,0,0-5.11,4.2Z" transform="translate(-1.09 -0.26)"/>
    <path id="a9f5c451-cf84-4c2e-a6c1-53731f5ec78e" data-name="Path 121" d="M227.07,21.28h20V24H230.18v10h11.1v2.65h-11.1V49.14h-3.05V21.28Z" transform="translate(-1.09 -0.26)"/>
    <path id="a8fb9376-8193-464f-931c-3b9a522c3a1d" data-name="Path 122" d="M256.84,49.54a10.2,10.2,0,0,1-10.31-10v-.3a10,10,0,0,1,9.72-10.3h.15a9.82,9.82,0,0,1,9.45,10.17v1H249.49a7.5,7.5,0,0,0,7.5,6.85,8.36,8.36,0,0,0,5.5-1.85l1.85,2A11.67,11.67,0,0,1,256.84,49.54Zm-7.3-11.8h13.35a6.69,6.69,0,0,0-13.35,0Z" transform="translate(-1.09 -0.26)"/>
    <path id="ae487164-9621-41e5-86f4-20de3206973d" data-name="Path 123" d="M270,44.54a9.24,9.24,0,0,0,6.5,2.65c3.2,0,5.4-1.45,5.4-3.6,0-1.7-1.15-2.7-3.7-3.05L274.7,40c-4-.6-5.9-2.35-5.9-5.4,0-3.35,3.1-5.8,7.5-5.8a12.7,12.7,0,0,1,7.86,2.65l-1.55,2a11.36,11.36,0,0,0-6.46-2.26c-2.75,0-4.6,1.35-4.6,3.3,0,1.7,1.1,2.55,3.7,2.95l3.45.5c4,.55,6,2.35,6,5.45,0,3.46-3.49,6.11-8.1,6.11a12.39,12.39,0,0,1-8.41-3.1Z" transform="translate(-1.09 -0.26)"/>
    <path id="ad7cbab8-b9ce-457d-8a4d-f0d08eb65de7" data-name="Path 124" d="M290,31.74H285.7v-2.5H290V24.13l2.9-.75v5.86h6v2.5h-6V44c0,2.15.9,3,3,3a7,7,0,0,0,2.9-.5v2.6a11.79,11.79,0,0,1-3.49.5c-3.46,0-5.41-1.7-5.41-4.8Z" transform="translate(-1.09 -0.26)"/>
    <ellipse id="aa8bb8cb-189b-4e70-b405-5474734e7c69" data-name="Ellipse 2" class="b0901e33-de66-4e3e-abeb-2f93c7f9f331" cx="36.98" cy="35.95" rx="36.98" ry="35.95"/>
    <path id="f21d12e6-e6c6-4477-84a2-24dfe9b06850" data-name="Path 125" class="aefe8736-e3d5-4288-9ee6-807541c08271" d="M54.64,50.1,40.28,15.58a2.44,2.44,0,0,0-3.19-1.31,2.47,2.47,0,0,0-1.31,1.31L20,53.45h5.41l6.25-15.62,18.61,15a3.14,3.14,0,0,0,2,.9,2.59,2.59,0,0,0,2.65-2.5v0A3.11,3.11,0,0,0,54.64,50.1ZM38.08,21.73l9.3,23-14.1-11.1Z" transform="translate(-1.09 -0.26)"/>
  </g>
</svg>
